<svg width="52" height="41" viewBox="0 0 52 41" fill="none" xmlns="http://www.w3.org/2000/svg">
<path d="M17.4701 17.4917H7.37167C5.82584 17.4917 4.29446 17.2894 2.87866 16.6248C1.57844 16.0181 0.56715 15.1079 0.205977 13.6488C-0.0829624 12.5219 0.162636 11.4528 0.639385 10.4271C1.05835 9.51694 1.66512 8.75126 2.31523 8.00001C4.3667 5.67406 6.41817 3.3481 8.46963 1.00769C8.67189 0.776538 8.80191 0.747645 9.04751 0.949902C9.5965 1.38331 9.61094 1.36886 9.45203 2.01898C8.93194 4.18602 8.42629 6.36751 7.9062 8.53455C7.6606 9.57473 8.29627 10.3838 9.36534 10.3838H27.713C28.0453 10.3838 28.2764 10.4704 28.4931 10.7016C30.01 12.233 31.527 13.7643 33.0439 15.2813C33.145 15.3824 33.2462 15.4691 33.4195 15.6136C33.4195 15.3969 33.4484 15.2668 33.4484 15.1368C33.4484 13.6777 33.4484 12.2185 33.4195 10.7738C33.4195 10.456 33.5206 10.3693 33.8385 10.3693H43.2579C44.457 10.3693 45.0638 9.61807 44.7893 8.43342C44.2547 6.1797 43.7346 3.92597 43.1857 1.67225C43.1279 1.42665 43.1857 1.29663 43.3735 1.16661C43.5902 1.03658 43.778 0.877666 43.9947 0.71875C44.7026 1.51333 45.3816 2.29347 46.0606 3.0736C47.3464 4.54719 48.6755 5.99189 49.9179 7.52327C51.1748 9.06909 51.8683 10.8461 51.8249 12.8686C51.796 14.6023 51.0159 15.8736 49.4701 16.6682C48.5599 17.1305 47.5775 17.405 46.5662 17.4194C43.0267 17.4772 39.4872 17.4772 35.9477 17.5061C35.8033 17.5061 35.6588 17.5061 35.471 17.5928C36.6123 18.8208 37.7392 20.0488 38.9094 21.2912C38.5337 21.8258 38.1726 22.3603 37.797 22.8948C35.6732 25.9287 33.564 28.977 31.4403 32.0108C31.238 32.2853 31.238 32.4876 31.4403 32.7765C31.917 33.4555 32.336 34.1634 32.7983 34.8569C32.9139 35.0447 32.9139 35.1603 32.7694 35.3336C31.9893 36.2871 31.2091 37.2695 30.429 38.223C30.3279 38.3531 30.1834 38.4542 30.0389 38.5264C28.9121 39.0754 27.7852 39.5955 26.6583 40.1445C26.4272 40.2601 26.2394 40.2601 26.0227 40.1445C24.8958 39.5811 23.7545 39.0465 22.6132 38.4831C22.4832 38.4253 22.3821 38.3242 22.2809 38.2086C21.5008 37.2406 20.7351 36.2727 19.9405 35.3192C19.8105 35.1458 19.796 35.0303 19.9116 34.8425C20.3884 34.1346 20.8362 33.3978 21.313 32.6899C21.4719 32.4587 21.4719 32.2853 21.313 32.0542C18.8714 28.558 16.4444 25.0619 14.0028 21.5657C13.945 21.479 13.8872 21.3923 13.8006 21.2623C15.0286 20.0343 16.271 18.8063 17.499 17.5783C17.4845 17.535 17.4701 17.5061 17.4556 17.4628V17.4917H17.4701Z" fill="#F9103D"/>
</svg>
