<svg width="224" height="64" viewBox="0 0 224 64" fill="none" xmlns="http://www.w3.org/2000/svg">
<path d="M29.4701 27.4917H19.3717C17.8258 27.4917 16.2945 27.2894 14.8787 26.6248C13.5784 26.0181 12.5672 25.1079 12.206 23.6488C11.917 22.5219 12.1626 21.4528 12.6394 20.4271C13.0583 19.5169 13.6651 18.7513 14.3152 18C16.3667 15.6741 18.4182 13.3481 20.4696 11.0077C20.6719 10.7765 20.8019 10.7476 21.0475 10.9499C21.5965 11.3833 21.6109 11.3689 21.452 12.019C20.9319 14.186 20.4263 16.3675 19.9062 18.5346C19.6606 19.5747 20.2963 20.3838 21.3653 20.3838H39.713C40.0453 20.3838 40.2764 20.4704 40.4931 20.7016C42.01 22.233 43.527 23.7643 45.0439 25.2813C45.145 25.3824 45.2462 25.4691 45.4195 25.6136C45.4195 25.3969 45.4484 25.2668 45.4484 25.1368C45.4484 23.6777 45.4484 22.2185 45.4195 20.7738C45.4195 20.456 45.5206 20.3693 45.8385 20.3693H55.2579C56.457 20.3693 57.0638 19.6181 56.7893 18.4334C56.2547 16.1797 55.7346 13.926 55.1857 11.6722C55.1279 11.4267 55.1857 11.2966 55.3735 11.1666C55.5902 11.0366 55.778 10.8777 55.9947 10.7188C56.7026 11.5133 57.3816 12.2935 58.0606 13.0736C59.3464 14.5472 60.6755 15.9919 61.9179 17.5233C63.1748 19.0691 63.8683 20.8461 63.8249 22.8686C63.796 24.6023 63.0159 25.8736 61.4701 26.6682C60.5599 27.1305 59.5775 27.405 58.5662 27.4194C55.0267 27.4772 51.4872 27.4772 47.9477 27.5061C47.8033 27.5061 47.6588 27.5061 47.471 27.5928C48.6123 28.8208 49.7392 30.0488 50.9094 31.2912C50.5337 31.8258 50.1726 32.3603 49.797 32.8948C47.6732 35.9287 45.564 38.977 43.4403 42.0108C43.238 42.2853 43.238 42.4876 43.4403 42.7765C43.917 43.4555 44.336 44.1634 44.7983 44.8569C44.9139 45.0447 44.9139 45.1603 44.7694 45.3336C43.9893 46.2871 43.2091 47.2695 42.429 48.223C42.3279 48.3531 42.1834 48.4542 42.0389 48.5264C40.9121 49.0754 39.7852 49.5955 38.6583 50.1445C38.4272 50.2601 38.2394 50.2601 38.0227 50.1445C36.8958 49.5811 35.7545 49.0465 34.6132 48.4831C34.4832 48.4253 34.3821 48.3242 34.2809 48.2086C33.5008 47.2406 32.7351 46.2727 31.9405 45.3192C31.8105 45.1458 31.796 45.0303 31.9116 44.8425C32.3884 44.1346 32.8362 43.3978 33.313 42.6899C33.4719 42.4587 33.4719 42.2853 33.313 42.0542C30.8714 38.558 28.4444 35.0619 26.0028 31.5657C25.945 31.479 25.8872 31.3923 25.8006 31.2623C27.0286 30.0343 28.271 28.8063 29.499 27.5783C29.4845 27.535 29.4701 27.5061 29.4556 27.4628V27.4917H29.4701Z" fill="#F9103D"/>
<path d="M181.886 43.1234C182.16 42.3866 182.42 41.6787 182.695 40.9708C185.035 34.7442 187.375 28.5031 189.701 22.2764C189.802 22.0164 189.904 21.9008 190.207 21.9153C191.695 21.9297 193.197 21.9153 194.686 21.9153C196.174 21.9153 195.032 21.9586 195.104 22.1898C197.691 29.081 200.277 35.9866 202.863 42.8778C202.891 42.95 202.906 43.0078 202.935 43.1234H199.309C199.063 43.1234 198.947 43.0512 198.861 42.82C198.225 41.1008 197.575 39.3816 196.939 37.648C196.838 37.3735 196.708 37.2868 196.419 37.2868H188.3C188.025 37.2868 187.895 37.3735 187.809 37.6335C187.188 39.3672 186.537 41.0864 185.916 42.8056C185.83 43.0367 185.728 43.1234 185.483 43.1089C184.298 43.0945 183.099 43.1089 181.871 43.1089L181.886 43.1234ZM195.769 34.3974C194.642 31.3347 193.544 28.3297 192.417 25.2381C191.262 28.3442 190.135 31.3491 189.008 34.3974H195.769Z" fill="white"/>
<path d="M160.259 35.6957H146.881C146.982 36.7503 147.3 37.6894 147.921 38.5128C148.774 39.6253 149.929 40.2031 151.316 40.3187C152.862 40.4632 154.336 40.232 155.592 39.2785C156.113 38.8885 156.532 38.3539 157.052 37.8338C157.947 38.1806 158.93 38.5562 159.97 38.9607C159.898 39.0907 159.854 39.2063 159.797 39.3219C158.482 41.6189 156.459 42.8903 153.888 43.3237C151.851 43.6704 149.843 43.5548 147.95 42.6591C145.205 41.3733 143.703 39.163 143.327 36.1869C143.081 34.2799 143.356 32.4307 144.324 30.7548C145.667 28.4 147.762 27.1142 150.406 26.7241C152.414 26.4352 154.35 26.6952 156.141 27.6921C158.829 29.1946 160.129 31.5639 160.273 34.5977C160.273 34.9444 160.273 35.2912 160.273 35.6812L160.259 35.6957ZM156.416 33.1675C156.127 31.246 153.989 29.6569 151.735 29.6858C149.496 29.7146 147.401 31.2894 147.155 33.1675H156.416Z" fill="white"/>
<path d="M91.519 32.1282C91.519 30.9291 91.8512 29.8889 92.6169 28.9787C93.4982 27.9241 94.6539 27.3173 95.9686 26.985C98.2801 26.4072 100.577 26.4794 102.816 27.3173C104.406 27.9096 105.561 28.9787 105.923 30.7268C105.995 31.0735 106.024 31.4491 106.024 31.7959V40.1751H107.454V43.1078H105.114C104.796 43.1078 104.463 43.05 104.16 42.9634C103.25 42.7033 102.701 42.0243 102.629 41.0853C102.6 40.6085 102.629 40.1318 102.629 39.6695H102.513C102.513 39.7128 102.484 39.7417 102.455 39.785C101.545 42.0388 99.7537 43.1223 97.4422 43.4112C95.7953 43.6135 94.2061 43.3534 92.7325 42.5589C89.8576 40.9986 89.742 36.8234 92.458 35.0753C93.6716 34.2952 95.0007 33.8907 96.402 33.674C98.3957 33.3706 100.404 33.0961 102.398 32.8072C102.441 32.8072 102.484 32.7927 102.528 32.7783C102.73 31.3336 102.484 30.4234 100.996 29.8889C99.6526 29.4121 98.2512 29.3977 96.8788 29.7589C95.723 30.0622 95.0874 30.8568 94.8851 32.027C94.8562 32.157 94.8418 32.2871 94.7984 32.4749C93.7005 32.3593 92.6169 32.2582 91.4901 32.1426H91.519V32.1282ZM102.556 35.1187H102.354C100.606 35.4076 98.8725 35.6821 97.1388 35.9999C96.2865 36.1444 95.4919 36.4333 94.8273 37.0112C93.7438 37.9792 93.9894 39.525 95.333 40.0884C95.5786 40.1896 95.8386 40.2762 96.0842 40.3051C97.6445 40.5218 99.1614 40.3051 100.548 39.5394C102.441 38.4993 102.788 36.9823 102.556 35.1187Z" fill="white"/>
<path d="M122.565 26.9715H126.061V40.2049H127.52V43.1087H125.628C125.31 43.1087 124.992 43.1232 124.688 43.0798C123.446 42.892 122.724 42.0252 122.695 40.725C122.695 40.3638 122.695 40.0026 122.623 39.627C122.579 39.6992 122.536 39.7715 122.507 39.8437C121.38 42.3141 118.91 43.7299 116.179 43.4554C113.391 43.1665 111.253 41.3029 110.675 38.6157C110.545 38.0089 110.473 37.3733 110.473 36.7521C110.473 33.6315 110.473 30.511 110.473 27.4049V26.957H114.07V36.7087C114.07 38.818 115.298 40.2049 117.422 40.4071C119.155 40.5805 120.658 40.0604 121.756 38.6302C122.391 37.8067 122.579 36.8243 122.594 35.813V26.957H122.565V26.9715Z" fill="white"/>
<path d="M167.207 43.1071H163.711V26.9554H167.106V30.466C167.135 30.466 167.164 30.4805 167.193 30.4949C167.25 30.3938 167.308 30.2782 167.366 30.1771C168.175 28.7035 169.259 27.5044 170.891 26.9265C174.546 25.6119 178.259 27.7211 179.068 31.5785C179.213 32.2575 179.299 32.9654 179.299 33.6588C179.328 36.7216 179.299 39.7988 179.299 42.8615V43.1071H175.846V34.15C175.846 32.9654 175.601 31.8529 174.763 30.9428C173.477 29.5559 171.007 29.4114 169.417 30.6683C168.016 31.7663 167.265 33.2399 167.236 35.0313C167.207 37.5739 167.236 40.1166 167.236 42.6448V43.1071H167.207Z" fill="white"/>
<path d="M84.6726 43.1085H80.9453V25.2232H73.6641V21.9726C75.1521 21.9726 76.6257 21.8859 78.0848 22.0015C79.5151 22.1171 80.4108 23.0272 80.9164 24.3853V21.9871H91.9539V25.1943H84.6726V43.1085Z" fill="white"/>
<path d="M142.071 26.7568V30.0363H141.695C140.597 30.0363 139.499 30.0652 138.416 30.0363C136.032 29.964 135.006 31.3943 134.674 33.2002C134.573 33.7636 134.53 34.3415 134.53 34.9193C134.53 37.5198 134.53 40.1202 134.53 42.7207V43.0963H131.019V30.123H129.574V26.9013H131.091C131.553 26.9013 132.03 26.9013 132.492 26.9302C133.518 27.0313 134.255 27.7681 134.399 28.7938C134.428 28.9527 134.443 29.1261 134.457 29.3139C134.847 28.895 135.209 28.476 135.613 28.1148C136.595 27.1902 137.722 26.6846 139.109 26.7568C139.976 26.8002 140.843 26.7568 141.71 26.7568H142.114H142.071Z" fill="white"/>
<path d="M209.048 43.1101H205.32V21.9453H209.048V43.1101Z" fill="white"/>
</svg>
